<mxfile host="Electron" agent="Mozilla/5.0 (Windows NT 10.0; Win64; x64) AppleWebKit/537.36 (KHTML, like Gecko) draw.io/24.7.5 Chrome/126.0.6478.183 Electron/31.3.0 Safari/537.36" version="24.7.5">
  <diagram name="Page-1" id="mZOD_tnza1Ey7wqmkClK">
    <mxGraphModel dx="1265" dy="1106" grid="1" gridSize="10" guides="1" tooltips="1" connect="1" arrows="1" fold="1" page="1" pageScale="1" pageWidth="827" pageHeight="1169" math="0" shadow="0">
      <root>
        <mxCell id="0" />
        <mxCell id="1" parent="0" />
        <mxCell id="ZpsFax3At80h3cH-HfD2-26" value="" style="rounded=0;whiteSpace=wrap;html=1;fillColor=none;strokeColor=none;" vertex="1" parent="1">
          <mxGeometry x="90" y="180" width="550" height="710" as="geometry" />
        </mxCell>
        <mxCell id="ZpsFax3At80h3cH-HfD2-17" value="" style="verticalLabelPosition=bottom;outlineConnect=0;align=center;dashed=0;html=1;verticalAlign=top;shape=mxgraph.pid2misc.column;columnType=common;strokeWidth=5;fillColor=#388ECC;strokeColor=none;" vertex="1" parent="1">
          <mxGeometry x="300" y="500" width="119.37" height="239" as="geometry" />
        </mxCell>
        <mxCell id="ZpsFax3At80h3cH-HfD2-18" value="" style="rounded=1;whiteSpace=wrap;html=1;absoluteArcSize=1;arcSize=0;strokeWidth=5;fillColor=#388ECC;strokeColor=none;" vertex="1" parent="1">
          <mxGeometry x="300" y="490" width="120" height="30" as="geometry" />
        </mxCell>
        <mxCell id="ZpsFax3At80h3cH-HfD2-1" value="" style="verticalLabelPosition=bottom;outlineConnect=0;align=center;dashed=0;html=1;verticalAlign=top;shape=mxgraph.pid2misc.column;columnType=common;strokeWidth=5;fillColor=none;" vertex="1" parent="1">
          <mxGeometry x="300" y="330" width="119.37" height="409" as="geometry" />
        </mxCell>
        <mxCell id="mlmWYDQaAf5w4Bjc56NV-6" value="" style="endArrow=blockThin;html=1;rounded=0;endFill=1;strokeWidth=5;exitX=0.998;exitY=0.16;exitDx=0;exitDy=0;exitPerimeter=0;" parent="1" edge="1" source="ZpsFax3At80h3cH-HfD2-4">
          <mxGeometry width="50" height="50" relative="1" as="geometry">
            <mxPoint x="545.3" y="783.9779999999998" as="sourcePoint" />
            <mxPoint x="560" y="785" as="targetPoint" />
            <Array as="points" />
          </mxGeometry>
        </mxCell>
        <mxCell id="ZpsFax3At80h3cH-HfD2-3" value="" style="shape=mxgraph.pid.heat_exchangers.heat_exchanger_(straight_tubes);html=1;pointerEvents=1;align=center;verticalLabelPosition=bottom;verticalAlign=top;dashed=0;strokeWidth=5;rotation=90;" vertex="1" parent="1">
          <mxGeometry x="309.44" y="570.45" width="100.75" height="119.37" as="geometry" />
        </mxCell>
        <mxCell id="ZpsFax3At80h3cH-HfD2-4" value="" style="shape=mxgraph.pid.pumps.centrifugal_pump_1;html=1;pointerEvents=1;align=center;verticalLabelPosition=bottom;verticalAlign=top;dashed=0;strokeWidth=5;" vertex="1" parent="1">
          <mxGeometry x="395" y="775" width="70" height="67" as="geometry" />
        </mxCell>
        <mxCell id="ZpsFax3At80h3cH-HfD2-6" value="" style="endArrow=blockThin;html=1;rounded=0;endFill=1;strokeWidth=5;entryX=0.07;entryY=0;entryDx=0;entryDy=0;entryPerimeter=0;edgeStyle=elbowEdgeStyle;" edge="1" parent="1" target="ZpsFax3At80h3cH-HfD2-3">
          <mxGeometry width="50" height="50" relative="1" as="geometry">
            <mxPoint x="560" y="587" as="sourcePoint" />
            <mxPoint x="423" y="544.72" as="targetPoint" />
          </mxGeometry>
        </mxCell>
        <mxCell id="ZpsFax3At80h3cH-HfD2-7" value="" style="endArrow=blockThin;html=1;rounded=0;endFill=1;strokeWidth=5;" edge="1" parent="1">
          <mxGeometry width="50" height="50" relative="1" as="geometry">
            <mxPoint x="419.37" y="670" as="sourcePoint" />
            <mxPoint x="560" y="670" as="targetPoint" />
            <Array as="points" />
          </mxGeometry>
        </mxCell>
        <mxCell id="ZpsFax3At80h3cH-HfD2-8" value="" style="endArrow=blockThin;html=1;rounded=0;endFill=1;strokeWidth=5;entryX=-0.006;entryY=0.45;entryDx=0;entryDy=0;entryPerimeter=0;" edge="1" parent="1" source="ZpsFax3At80h3cH-HfD2-1" target="ZpsFax3At80h3cH-HfD2-4">
          <mxGeometry width="50" height="50" relative="1" as="geometry">
            <mxPoint x="358" y="748.9999999999999" as="sourcePoint" />
            <mxPoint x="389.3118599999998" y="804.7580000000002" as="targetPoint" />
            <Array as="points">
              <mxPoint x="358.5" y="805.07" />
            </Array>
          </mxGeometry>
        </mxCell>
        <mxCell id="ZpsFax3At80h3cH-HfD2-10" value="" style="endArrow=blockThin;html=1;rounded=0;endFill=1;strokeWidth=5;" edge="1" parent="1">
          <mxGeometry width="50" height="50" relative="1" as="geometry">
            <mxPoint x="360" y="330" as="sourcePoint" />
            <mxPoint x="560" y="300" as="targetPoint" />
            <Array as="points">
              <mxPoint x="360" y="300" />
            </Array>
          </mxGeometry>
        </mxCell>
        <mxCell id="ZpsFax3At80h3cH-HfD2-19" value="" style="endArrow=blockThin;html=1;rounded=0;endFill=1;strokeWidth=5;edgeStyle=elbowEdgeStyle;" edge="1" parent="1" target="ZpsFax3At80h3cH-HfD2-1">
          <mxGeometry width="50" height="50" relative="1" as="geometry">
            <mxPoint x="240" y="535" as="sourcePoint" />
            <mxPoint x="110" y="440" as="targetPoint" />
          </mxGeometry>
        </mxCell>
        <mxCell id="ZpsFax3At80h3cH-HfD2-20" value="Feed&lt;div&gt;20% H&lt;sub&gt;2&lt;/sub&gt;O&lt;/div&gt;&lt;div&gt;80%&amp;nbsp; H&lt;sub&gt;2&lt;/sub&gt;SO&lt;sub&gt;4&lt;/sub&gt;&lt;/div&gt;" style="text;html=1;align=left;verticalAlign=top;whiteSpace=wrap;rounded=0;fontFamily=IBM Plex sans;fontSize=24;fontStyle=1" vertex="1" parent="1">
          <mxGeometry x="110" y="430" width="180" height="100" as="geometry" />
        </mxCell>
        <mxCell id="ZpsFax3At80h3cH-HfD2-22" value="Product&lt;div&gt;&lt;span style=&quot;background-color: initial;&quot;&gt;99%&amp;nbsp; H&lt;/span&gt;&lt;sub style=&quot;background-color: initial;&quot;&gt;2&lt;/sub&gt;&lt;span style=&quot;background-color: initial;&quot;&gt;SO&lt;/span&gt;&lt;sub style=&quot;background-color: initial;&quot;&gt;4&lt;/sub&gt;&lt;br&gt;&lt;/div&gt;" style="text;html=1;align=left;verticalAlign=top;whiteSpace=wrap;rounded=0;fontFamily=IBM Plex sans;fontSize=24;fontStyle=1" vertex="1" parent="1">
          <mxGeometry x="480" y="800" width="180" height="100" as="geometry" />
        </mxCell>
        <mxCell id="ZpsFax3At80h3cH-HfD2-29" value="" style="verticalLabelPosition=bottom;align=center;html=1;verticalAlign=top;pointerEvents=1;dashed=0;shape=mxgraph.pid2valves.valve;valveType=gate;actuator=diaph;strokeWidth=5;" vertex="1" parent="1">
          <mxGeometry x="490" y="560" width="40" height="40" as="geometry" />
        </mxCell>
        <mxCell id="ZpsFax3At80h3cH-HfD2-36" style="edgeStyle=orthogonalEdgeStyle;rounded=0;orthogonalLoop=1;jettySize=auto;html=1;exitX=0.5;exitY=1;exitDx=0;exitDy=0;exitPerimeter=0;fontFamily=Helvetica;fontSize=45;fontColor=default;endArrow=none;endFill=0;dashed=1;strokeWidth=3;" edge="1" parent="1" source="ZpsFax3At80h3cH-HfD2-32">
          <mxGeometry relative="1" as="geometry">
            <mxPoint x="510.20000000000005" y="300" as="targetPoint" />
          </mxGeometry>
        </mxCell>
        <mxCell id="ZpsFax3At80h3cH-HfD2-32" value="AT" style="dashed=0;outlineConnect=0;align=center;html=1;shape=mxgraph.pid.engines.electric_motor;fontSize=16;strokeColor=default;strokeWidth=3;verticalAlign=middle;fontFamily=Helvetica;fontColor=default;fillColor=default;fontStyle=1" vertex="1" parent="1">
          <mxGeometry x="490" y="210" width="40" height="40" as="geometry" />
        </mxCell>
        <mxCell id="ZpsFax3At80h3cH-HfD2-35" style="edgeStyle=orthogonalEdgeStyle;rounded=0;orthogonalLoop=1;jettySize=auto;html=1;exitX=0.5;exitY=1;exitDx=0;exitDy=0;exitPerimeter=0;fontFamily=Helvetica;fontSize=45;fontColor=default;entryX=0.485;entryY=0.06;entryDx=0;entryDy=0;entryPerimeter=0;endArrow=none;endFill=0;dashed=1;strokeWidth=3;" edge="1" parent="1" source="ZpsFax3At80h3cH-HfD2-33" target="ZpsFax3At80h3cH-HfD2-29">
          <mxGeometry relative="1" as="geometry">
            <mxPoint x="670" y="580" as="targetPoint" />
          </mxGeometry>
        </mxCell>
        <mxCell id="ZpsFax3At80h3cH-HfD2-33" value="AC" style="dashed=0;outlineConnect=0;align=center;html=1;shape=mxgraph.pid.engines.electric_motor;fontSize=16;strokeColor=default;strokeWidth=3;verticalAlign=middle;fontFamily=Helvetica;fontColor=default;fillColor=default;fontStyle=1" vertex="1" parent="1">
          <mxGeometry x="580" y="210" width="40" height="40" as="geometry" />
        </mxCell>
        <mxCell id="ZpsFax3At80h3cH-HfD2-34" style="edgeStyle=orthogonalEdgeStyle;rounded=0;orthogonalLoop=1;jettySize=auto;html=1;entryX=0;entryY=0.5;entryDx=0;entryDy=0;entryPerimeter=0;fontFamily=Helvetica;fontSize=45;fontColor=default;endArrow=none;endFill=0;dashed=1;strokeWidth=3;" edge="1" parent="1" source="ZpsFax3At80h3cH-HfD2-32" target="ZpsFax3At80h3cH-HfD2-33">
          <mxGeometry relative="1" as="geometry" />
        </mxCell>
      </root>
    </mxGraphModel>
  </diagram>
</mxfile>
